<?xml version="1.0" standalone="no"?>
<!DOCTYPE svg PUBLIC "-//W3C//DTD SVG 20010904//EN"
 "http://www.w3.org/TR/2001/REC-SVG-20010904/DTD/svg10.dtd">
<svg version="1.0" xmlns="http://www.w3.org/2000/svg"
 width="260.000000pt" height="280.000000pt" viewBox="0 0 260.000000 280.000000"
 preserveAspectRatio="xMidYMid meet">

<g transform="translate(0.000000,280.000000) scale(0.100000,-0.100000)"
fill="#000000" stroke="none">
<path d="M902 2138 c-16 -16 -17 -979 -2 -1009 10 -18 24 -19 325 -19 l314 0
85 98 86 97 0 410 c0 307 -3 414 -12 423 -17 17 -779 17 -796 0z m773 -413 l0
-400 -65 -3 c-35 -2 -70 -8 -77 -14 -9 -7 -13 -37 -13 -88 0 -65 -3 -79 -17
-82 -9 -2 -144 -2 -300 0 l-283 3 0 488 c0 268 3 491 7 494 4 4 173 6 377 5
l371 -3 0 -400z m-30 -440 c0 -17 -83 -110 -91 -103 -8 9 -7 95 2 109 8 13 89
7 89 -6z"/>
<path d="M1004 2047 c-2 -7 -3 -58 -2 -113 l3 -99 108 -3 107 -3 0 116 0 115
-105 0 c-78 0 -107 -3 -111 -13z m196 -88 c0 -53 -3 -70 -12 -66 -7 3 -20 8
-29 11 -10 5 -19 -1 -27 -16 -10 -21 -11 -22 -12 -3 l-1 20 -9 -20 c-9 -19 -9
-19 -16 3 -7 26 -5 25 -38 12 l-26 -10 0 70 0 70 85 0 85 0 0 -71z"/>
<path d="M1085 1996 c-3 -9 -7 -22 -9 -30 -6 -18 21 -56 39 -56 20 0 37 36 33
68 -2 21 -9 28 -31 30 -18 2 -29 -2 -32 -12z"/>
<path d="M1342 2020 c-52 -21 -53 -119 -1 -145 32 -17 59 -13 84 11 31 32 7
48 -26 18 -38 -35 -80 17 -58 73 9 24 38 30 56 12 6 -6 19 -9 29 -7 17 3 17 5
-4 26 -23 23 -43 26 -80 12z"/>
<path d="M1479 1948 c20 -54 32 -74 46 -76 17 -2 25 11 47 73 24 69 25 75 8
75 -12 0 -21 -13 -30 -45 -7 -25 -16 -48 -21 -50 -4 -3 -15 17 -24 45 -12 35
-22 50 -35 50 -16 0 -16 -6 9 -72z"/>
<path d="M1005 1750 c-3 -6 0 -12 7 -15 26 -10 583 0 581 10 -4 14 -579 19
-588 5z"/>
<path d="M1005 1650 c-3 -6 0 -12 7 -15 26 -10 583 0 581 10 -4 14 -579 19
-588 5z"/>
<path d="M1010 1545 c0 -13 37 -15 292 -13 222 2 292 6 296 16 3 9 -60 12
-292 12 -258 0 -296 -2 -296 -15z"/>
<path d="M1010 1445 c0 -13 37 -15 292 -13 222 2 292 6 296 16 3 9 -60 12
-292 12 -258 0 -296 -2 -296 -15z"/>
<path d="M1010 1345 c0 -11 11 -15 40 -15 29 0 40 4 40 15 0 11 -11 15 -40 15
-29 0 -40 -4 -40 -15z"/>
<path d="M1140 1345 c0 -13 20 -15 150 -13 200 4 200 22 0 26 -130 2 -150 0
-150 -13z"/>
<path d="M1010 1245 c0 -11 11 -15 40 -15 29 0 40 4 40 15 0 11 -11 15 -40 15
-29 0 -40 -4 -40 -15z"/>
<path d="M1140 1245 c0 -13 20 -15 150 -13 92 2 150 7 150 13 0 6 -58 11 -150
13 -130 2 -150 0 -150 -13z"/>
<path d="M482 958 c-7 -7 -12 -28 -12 -48 0 -20 5 -41 12 -48 24 -24 88 -9 88
22 0 5 -8 2 -18 -7 -26 -24 -51 -21 -64 8 -8 19 -8 31 0 50 12 25 45 34 57 15
3 -5 11 -10 17 -10 7 0 6 6 -2 15 -15 18 -61 20 -78 3z"/>
<path d="M590 936 c0 -58 16 -86 48 -86 15 0 33 5 40 12 15 15 16 108 2 108
-6 0 -9 -20 -8 -45 1 -50 -10 -69 -38 -63 -15 2 -20 14 -22 56 -3 57 -22 73
-22 18z"/>
<path d="M721 908 c1 -35 4 -51 6 -35 6 35 35 36 62 0 12 -14 24 -23 28 -20 3
4 -2 16 -12 27 -16 18 -16 20 -1 35 9 9 16 20 16 24 0 17 -27 31 -62 31 l-38
0 1 -62z m77 30 c3 -15 -4 -18 -32 -18 -34 0 -47 15 -29 34 13 13 58 1 61 -16z"/>
<path d="M840 911 c0 -34 4 -61 10 -61 6 0 10 11 10 25 0 18 5 25 19 25 10 0
26 -11 35 -25 9 -14 21 -25 27 -25 6 0 1 13 -10 29 -18 25 -19 30 -5 35 9 4
14 15 12 28 -3 20 -10 23 -50 26 l-48 3 0 -60z m78 27 c3 -14 -3 -18 -27 -18
-25 0 -31 4 -31 21 0 16 5 20 27 17 17 -2 29 -10 31 -20z"/>
<path d="M971 913 c0 -35 2 -63 7 -63 4 0 6 21 4 48 -5 75 -10 82 -11 15z"/>
<path d="M1026 955 c-18 -19 -21 -57 -6 -86 15 -27 75 -26 90 1 13 24 2 27
-15 4 -8 -12 -20 -15 -38 -10 -22 5 -27 12 -27 39 0 53 33 73 65 40 16 -16 17
-15 13 3 -4 25 -59 31 -82 9z"/>
<path d="M1141 924 c-1 -59 13 -77 56 -72 27 3 28 5 29 63 l1 60 -6 -55 c-5
-43 -10 -56 -25 -58 -27 -5 -39 12 -47 66 l-6 47 -2 -51z"/>
<path d="M1260 910 l0 -60 43 2 c36 1 38 2 10 5 -33 4 -33 5 -33 59 0 30 -4
54 -10 54 -6 0 -10 -27 -10 -60z"/>
<path d="M1362 925 c-2 -64 7 -77 49 -73 l34 3 1 60 1 60 -6 -55 c-5 -46 -10
-56 -27 -58 -29 -4 -42 15 -47 68 l-4 45 -1 -50z"/>
<path d="M1480 910 c0 -67 20 -84 21 -17 l1 42 15 -42 c8 -24 18 -43 23 -43 5
0 15 19 23 43 l15 42 1 -42 c1 -67 21 -50 21 18 0 72 -17 76 -40 11 -8 -23
-17 -42 -21 -42 -3 0 -12 20 -19 45 -19 67 -40 59 -40 -15z"/>
<path d="M1681 918 c33 -85 40 -88 62 -25 8 23 18 50 22 60 4 9 3 17 -2 17 -4
0 -17 -24 -27 -52 l-19 -53 -20 53 c-11 28 -24 52 -28 52 -5 0 1 -23 12 -52z"/>
<path d="M1790 910 c0 -33 4 -60 10 -60 6 0 10 27 10 60 0 33 -4 60 -10 60 -6
0 -10 -27 -10 -60z"/>
<path d="M1845 961 c15 -6 21 -20 26 -62 l6 -54 1 53 c2 44 5 54 25 62 17 7
12 9 -28 9 -34 0 -44 -3 -30 -8z"/>
<path d="M1940 915 c-22 -55 -22 -87 0 -46 14 27 46 27 60 1 6 -11 15 -20 20
-20 11 0 -35 113 -48 118 -5 1 -20 -22 -32 -53z m44 9 c9 -23 8 -24 -13 -24
-14 0 -18 5 -14 20 6 24 19 26 27 4z"/>
<path d="M2040 910 l0 -60 48 2 c43 1 44 2 10 5 -30 3 -38 9 -38 24 0 14 7 19
29 19 17 0 33 5 36 10 4 6 -8 10 -29 10 -29 0 -36 4 -36 19 0 15 8 21 38 24
34 3 33 4 -10 5 l-48 2 0 -60z"/>
<path d="M603 95 c0 -27 2 -38 4 -22 2 15 8 27 13 27 5 0 11 -12 13 -27 4 -26
4 -26 6 5 1 22 -4 32 -13 32 -8 0 -17 8 -19 18 -3 9 -5 -5 -4 -33z"/>
<path d="M1102 95 c0 -27 2 -43 5 -35 3 8 13 24 22 35 15 18 15 19 -1 7 -14
-12 -17 -10 -21 15 -2 16 -4 6 -5 -22z"/>
<path d="M719 119 c-8 -20 4 -62 19 -65 7 -1 8 0 2 3 -15 7 -12 43 4 43 8 0
16 -10 18 -22 2 -12 9 -23 16 -24 7 -1 8 0 2 3 -12 6 -13 40 -1 45 5 2 3 9 -5
16 -8 7 -14 8 -14 2 0 -14 -27 -13 -32 2 -3 8 -6 7 -9 -3z"/>
<path d="M949 118 c-2 -25 3 -53 11 -62 5 -5 6 1 3 14 -3 12 -1 25 4 29 7 4 6
11 -3 19 -11 10 -14 10 -15 0z"/>
<path d="M1485 120 c-3 -5 0 -7 8 -4 24 9 28 -12 7 -31 -27 -25 -25 -35 8 -34
21 0 23 2 9 7 -15 7 -16 10 -3 27 7 10 12 25 9 32 -6 15 -29 17 -38 3z"/>
<path d="M1545 120 c-3 -5 0 -7 8 -4 24 9 28 -12 7 -31 -27 -25 -25 -35 8 -34
21 0 23 2 9 7 -15 7 -16 10 -3 27 7 10 12 25 9 32 -6 15 -29 17 -38 3z"/>
<path d="M1605 120 c-4 -6 1 -7 11 -3 13 5 16 3 11 -10 -3 -9 -2 -19 4 -22 14
-9 -1 -27 -18 -21 -8 3 -11 1 -8 -4 9 -14 32 -12 38 3 14 38 -19 88 -38 57z"/>
<path d="M1665 120 c-3 -5 0 -7 8 -4 24 9 28 -12 7 -31 -27 -25 -25 -35 8 -34
21 0 23 2 9 7 -15 7 -16 10 -3 27 7 10 12 25 9 32 -6 15 -29 17 -38 3z"/>
<path d="M1737 123 c22 -4 22 -6 8 -33 -22 -42 -17 -51 5 -10 25 46 25 50 -7
49 -24 -2 -25 -2 -6 -6z"/>
<path d="M1790 106 c-15 -29 -8 -56 15 -56 23 0 31 31 12 45 -12 9 -14 14 -5
23 7 7 8 12 2 12 -6 0 -16 -11 -24 -24z m22 -31 c0 -5 -5 -11 -11 -13 -6 -2
-11 4 -11 13 0 9 5 15 11 13 6 -2 11 -8 11 -13z"/>
<path d="M1845 120 c-4 -6 1 -7 11 -3 13 5 16 3 11 -10 -3 -9 -2 -19 4 -22 14
-9 -1 -27 -18 -21 -8 3 -11 1 -8 -4 8 -14 32 -13 37 2 13 39 -18 88 -37 58z"/>
<path d="M1905 120 c-4 -6 1 -7 11 -3 13 5 16 3 11 -10 -3 -9 -2 -19 4 -22 14
-9 -1 -27 -18 -21 -8 3 -11 1 -8 -4 8 -13 35 -13 35 0 0 6 11 10 25 10 14 0
25 -6 25 -12 0 -10 2 -10 8 0 5 7 6 27 4 44 l-5 32 -22 -26 c-24 -28 -35 -27
-35 4 0 19 -25 25 -35 8z m81 -37 c-10 -10 -19 5 -10 18 6 11 8 11 12 0 2 -7
1 -15 -2 -18z"/>
<path d="M2037 123 c22 -4 22 -6 8 -33 -22 -42 -17 -51 5 -10 25 46 25 50 -7
49 -24 -2 -25 -2 -6 -6z"/>
<path d="M550 93 c0 -10 4 -14 8 -8 4 6 11 13 16 18 5 4 2 7 -7 7 -10 0 -17
-8 -17 -17z"/>
<path d="M661 83 c-1 -27 3 -33 19 -33 16 0 20 6 19 33 -2 30 -2 30 -6 5 -6
-36 -20 -36 -26 0 -4 25 -4 25 -6 -5z"/>
<path d="M807 104 c-13 -13 -7 -24 14 -24 11 0 19 5 17 12 -5 14 -22 21 -31
12z"/>
<path d="M861 78 c2 -28 2 -29 6 -8 3 14 10 28 17 32 7 5 5 8 -6 8 -14 0 -18
-8 -17 -32z"/>
<path d="M900 93 c0 -10 4 -14 8 -8 4 6 11 13 16 18 5 4 2 7 -7 7 -10 0 -17
-8 -17 -17z"/>
<path d="M994 95 c-8 -21 2 -45 20 -45 7 0 16 7 20 15 8 21 -3 45 -20 45 -8 0
-17 -7 -20 -15z m31 -15 c0 -7 -6 -15 -12 -17 -8 -3 -13 4 -13 17 0 13 5 20
13 18 6 -3 12 -11 12 -18z"/>
<path d="M1054 95 c-8 -20 2 -45 18 -44 10 0 10 2 1 6 -7 2 -13 13 -13 23 0
10 6 21 13 23 9 4 9 6 -1 6 -7 1 -15 -6 -18 -14z"/>
<path d="M1194 95 c-8 -20 2 -45 18 -44 10 0 10 2 1 6 -7 2 -13 13 -13 23 0
10 6 21 13 23 9 4 9 6 -1 6 -7 1 -15 -6 -18 -14z"/>
<path d="M1244 95 c-8 -21 2 -45 20 -45 7 0 16 7 20 15 8 21 -3 45 -20 45 -8
0 -17 -7 -20 -15z m31 -15 c0 -7 -6 -15 -12 -17 -8 -3 -13 4 -13 17 0 13 5 20
13 18 6 -3 12 -11 12 -18z"/>
<path d="M1301 77 c2 -31 2 -31 6 -4 2 15 8 27 13 27 5 0 11 -12 13 -27 l4
-28 2 28 c0 15 5 27 10 27 5 0 12 -12 14 -27 4 -27 4 -27 6 4 1 29 -1 31 -34
31 -33 0 -35 -2 -34 -31z"/>
<path d="M562 65 c-11 -12 -10 -15 3 -15 8 0 15 7 15 15 0 18 -2 18 -18 0z"/>
<path d="M912 65 c-11 -12 -10 -15 3 -15 8 0 15 7 15 15 0 18 -2 18 -18 0z"/>
<path d="M1120 71 c0 -5 5 -13 10 -16 6 -3 10 -2 10 4 0 5 -4 13 -10 16 -5 3
-10 2 -10 -4z"/>
<path d="M808 58 c5 -5 16 -8 23 -6 8 3 3 7 -10 11 -17 4 -21 3 -13 -5z"/>
</g>
</svg>
